<?xml version="1.0" encoding="utf-8"?>

<!DOCTYPE svg PUBLIC "-//W3C//DTD SVG 1.1//EN" "http://www.w3.org/Graphics/SVG/1.1/DTD/svg11.dtd">
<!-- Uploaded to: SVG Repo, www.svgrepo.com, Generator: SVG Repo Mixer Tools -->
<svg height="800px" width="800px" version="1.1" id="_x32_" xmlns="http://www.w3.org/2000/svg" xmlns:xlink="http://www.w3.org/1999/xlink" 
	 viewBox="0 0 512 512"  xml:space="preserve">
<style type="text/css">
	.st0{fill:#000000;}
</style>
<g>
	<path class="st0" d="M290.967,97.832c27.026,0,48.92-21.902,48.92-48.92C339.888,21.894,317.994,0,290.967,0
		c-27.008,0-48.92,21.894-48.92,48.911C242.047,75.929,263.96,97.832,290.967,97.832z"/>
	<path class="st0" d="M460.824,55c-9.518-4.477-20.856-0.391-25.333,9.118l-37.764,71.933l-56.601-8.371l-26.68-3.804l1.547-13.969
		l-21.458-3.094l-7.152,61.214l24.115,2.676c1.82,0.199,3.13,1.837,2.93,3.657c-0.182,1.693-1.62,2.948-3.276,2.948
		c-0.127,0-0.254,0-0.382-0.018l-24.151-2.684l-4.459,38.192l23.824,2.648c1.82,0.21,3.13,1.848,2.93,3.668
		c-0.2,1.692-1.638,2.939-3.294,2.939c-0.128,0-0.254,0-0.364-0.019l-23.878-2.647l-3.985,34.069l25.825,2.876
		c1.82,0.2,3.13,1.838,2.93,3.658c-0.199,1.692-1.637,2.948-3.294,2.948c-0.128,0-0.254-0.009-0.363-0.018l-25.862-2.876
		l-5.296,45.263c-0.182,1.692-1.619,2.93-3.276,2.93c-0.127,0-0.254,0-0.4-0.018c-1.802-0.219-3.112-1.857-2.894-3.677l5.278-45.226
		l-27.226-3.021c-1.821-0.21-3.131-1.847-2.931-3.668c0.2-1.82,1.893-3.121,3.658-2.93l27.263,3.03l3.985-34.07l-29.21-3.248
		c-1.82-0.2-3.13-1.838-2.93-3.668c0.2-1.82,1.856-3.111,3.658-2.92l29.246,3.248l4.477-38.201l-28.938-3.204
		c-1.801-0.208-3.112-1.847-2.912-3.666c0.2-1.811,1.874-3.122,3.658-2.921l28.956,3.212l7.171-61.423l-37.036-5.341l-1.821,14.032
		l-25.843-3.685l-72.944-10.374L62.781,88.541c-10.336-1.93-20.274,4.877-22.221,15.206c-1.929,10.338,4.877,20.284,15.214,22.222
		l57.129,13.586l-6.716,34.443l98.642,14.295l-9.154,74.646l-39.785,46.409l13.486,8.754l-34.306,42.442l-80.497,99.588
		c-9.1,10.265-8.117,25.953,2.148,35.025c10.264,9.081,25.952,8.108,35.034-2.157l88.941-92.126l44.298-46.609l19.292,12.54
		l30.939-33.15l48.611,33.15l7.789-11.676l31.813,20.575l5.624,111.636c0.073,13.704,11.247,24.752,24.97,24.661
		c13.704-0.092,24.733-11.266,24.66-24.97l4.64-123.293c1.802-11.102-2.584-22.786-12.375-29.747l-42.933-33.469l4.44-6.643
		l-41.986-29.829l10.665-63.253c24.187,1.812,58.876,4.086,68.321,3.03c14.924-1.656,29.848-6.624,36.472-23.204
		c6.624-16.561,9.937-32.031,9.937-32.031l-12.612-4.359l26.698-63.908C474.419,70.805,470.343,59.476,460.824,55z"/>
</g>
</svg>