<?xml version="1.0" encoding="utf-8"?>

<!DOCTYPE svg PUBLIC "-//W3C//DTD SVG 1.1//EN" "http://www.w3.org/Graphics/SVG/1.1/DTD/svg11.dtd">
<!-- Uploaded to: SVG Repo, www.svgrepo.com, Generator: SVG Repo Mixer Tools -->
<svg height="800px" width="800px" version="1.1" id="_x32_" xmlns="http://www.w3.org/2000/svg" xmlns:xlink="http://www.w3.org/1999/xlink" 
	 viewBox="0 0 512 512"  xml:space="preserve">
<style type="text/css">
	.st0{fill:#000000;}
</style>
<g>
	<path class="st0" d="M285.142,392.848l0.806-53.202c-5.18,1.964-10.722,3.01-16.397,3.01c-9.851,0-19.702-3.19-28.5-9.21
		c-5.328-3.667-15.558-10.369-20.475-13.856c0,0,3.914,63.259,3.914,76.308c0,13.034,3.256,29.997,5.871,39.124
		c2.615,9.136,13.7,48.926,13.7,48.926l17.729-7.828l6.842,20.13c4.999,12.737,19.372,19.036,32.118,14.028
		c12.746-4.992,19.028-19.373,14.028-32.111L285.142,392.848z"/>
	<path class="st0" d="M412.564,212.027l0.017-0.05l-67.822-20.006l-49.716-39.256c-7.04-5.542-14.818-10.007-23.09-13.305
		l-1.579-17.877c-12.894,5.756-24.142,7.096-33.484,6.241v20.278h-10.443v-22.25c-13.748-4.013-21.297-12.096-21.297-12.096
		l-0.362,8.322c-7.549-2.853-14.703-6.652-21.28-11.372l-31.593-27.086l-28.253-64.401c-0.1-0.346-0.165-0.699-0.28-1.036
		C120.158,8.24,109.551,2.829,99.651,6.036c-9.884,3.216-15.294,13.823-12.088,23.723c0.214,0.625,0.444,1.242,0.707,1.842
		l17.959,46.755L88.204,98.963c0,0,23.83,52.774,94.448,82.541l13.174,47.421l52.05,16.7l-1.826,6.776l-57.396-16.084
		c-7.582-2.426-14.62-3.142-20.919-2.41c-29.816,1.423-36.509,31.502-36.509,46.764c0,16.528,0,83.923,0,83.923h13.732
		c1.151,12.318,1.957,20.87,1.957,20.87c0,13.69,11.1,24.783,24.783,24.783s24.784-11.093,24.784-24.783l-0.428-89.137
		c0,0,22.778,11.997,48.696,29.783c23.633,16.216,50.884,6.414,61.409-15.409c8.864,2.951,18.748,5.443,22.695,3.47
		c4.654-2.319-5.97-40.096-15.311-70.24c29.438,16.215,70.092,27.193,70.092,27.193l-2.451-29.389l22.662,4.548
		c9.555,2.105,18.995-3.931,21.1-13.469C426.954,223.646,421.461,214.593,412.564,212.027z M231.661,211.534
		c-3.355,0-6.085-2.722-6.085-6.084c0-3.356,2.73-6.086,6.085-6.086c3.371,0,6.101,2.73,6.101,6.086
		C237.762,208.812,235.032,211.534,231.661,211.534z M232.977,178.93c-3.372,0-6.085-2.722-6.085-6.093
		c0-3.355,2.714-6.086,6.085-6.086c3.355,0,6.084,2.731,6.084,6.086C239.061,176.208,236.331,178.93,232.977,178.93z"/>
	<path class="st0" d="M201.499,51.92c-3.19,6.126-5.016,13.09-5.016,20.475c0,24.496,19.85,44.354,44.354,44.354
		c24.488,0,44.338-19.858,44.338-44.354c0-20.681-14.16-38.064-33.336-42.964c-5.871-9.704-22.103-15.418-37.134-7.902
		C199.739,29.019,200.283,44.848,201.499,51.92z"/>
	<path class="st0" d="M206.235,19.571c5.411,0,9.785-4.384,9.785-9.786S211.646,0,206.235,0c-5.411,0-9.785,4.383-9.785,9.785
		S200.825,19.571,206.235,19.571z"/>
	<path class="st0" d="M178.837,33.92c5.411,0,9.785-4.375,9.785-9.786c0-5.402-4.374-9.777-9.785-9.777
		c-5.394,0-9.785,4.374-9.785,9.777C169.052,29.545,173.443,33.92,178.837,33.92z"/>
	<path class="st0" d="M172.965,68.488c5.411,0,9.785-4.374,9.785-9.794c0-5.394-4.374-9.777-9.785-9.777
		c-5.394,0-9.785,4.383-9.785,9.777C163.18,64.114,167.571,68.488,172.965,68.488z"/>
</g>
</svg>